<?xml version="1.0" encoding="UTF-8" standalone="no"?>
<svg
   viewBox="0 0 26.257859 26.259636"
   version="1.1"
   x="0px"
   y="0px"
   id="svg2"
   width="26.257858"
   height="26.259638"
   xmlns="http://www.w3.org/2000/svg"
   xmlns:svg="http://www.w3.org/2000/svg">
  <defs
     id="defs2" />
  <path
     style="color:#000000;font-variant-ligatures:normal;font-variant-position:normal;font-variant-caps:normal;font-variant-numeric:normal;font-variant-alternates:normal;font-variant-east-asian:normal;font-feature-settings:normal;font-variation-settings:normal;text-indent:0;text-decoration-line:none;text-decoration-style:solid;text-decoration-color:#000000;text-transform:none;direction:ltr;text-orientation:mixed;dominant-baseline:auto;baseline-shift:baseline;white-space:normal;shape-padding:0;shape-margin:0;inline-size:0;isolation:auto;mix-blend-mode:normal;color-interpolation:sRGB;color-interpolation-filters:linearRGB;solid-color:#000000;solid-opacity:1;vector-effect:none;color-rendering:auto;image-rendering:auto;shape-rendering:auto;enable-background:accumulate"
     d="m 12.898816,26.164282 a 0.32564252,0.32564252 0 0 0 0.46048,3e-6 L 26.162448,13.361133 a 0.32564252,0.32564252 0 0 0 0.0099,-0.01079 0.32564252,0.32564252 0 0 0 0.013,-0.01441 0.32564252,0.32564252 0 0 0 0.01208,-0.0149 0.32564252,0.32564252 0 0 0 0.01066,-0.01632 0.32564252,0.32564252 0 0 0 0.0091,-0.01475 0.32564252,0.32564252 0 0 0 0.0015,-0.0029 0.32564252,0.32564252 0 0 0 0.0019,-0.0033 0.32564252,0.32564252 0 0 0 0.0063,-0.01341 0.32564252,0.32564252 0 0 0 0.0078,-0.01774 0.32564252,0.32564252 0 0 0 0.0067,-0.01802 0.32564252,0.32564252 0 0 0 0.0056,-0.01829 0.32564252,0.32564252 0 0 0 0,-4.48e-4 0.32564252,0.32564252 0 0 0 0.0038,-0.0165 0.32564252,0.32564252 0 0 0 0.0012,-0.004 0.32564252,0.32564252 0 0 0 3.54e-4,-0.0032 0.32564252,0.32564252 0 0 0 0.0019,-0.01467 0.32564252,0.32564252 0 0 0 0.0022,-0.01935 0.32564252,0.32564252 0 0 0 8.06e-4,-0.01495 0.32564252,0.32564252 0 0 0 4.95e-4,-0.0047 0.32564252,0.32564252 0 0 0 7.1e-5,-0.0043 0.32564252,0.32564252 0 0 0 -1.91e-4,-0.01777 0.32564252,0.32564252 0 0 0 -9.9e-4,-0.01032 0.32564252,0.32564252 0 0 0 -7.78e-4,-0.0077 0.32564252,0.32564252 0 0 0 -1.41e-4,-0.0027 0.32564252,0.32564252 0 0 0 -0.0021,-0.01464 0.32564252,0.32564252 0 0 0 -0.0034,-0.01912 0.32564252,0.32564252 0 0 0 -0.0038,-0.01598 0.32564252,0.32564252 0 0 0 -8.49e-4,-0.0034 0.32564252,0.32564252 0 0 0 -0.0041,-0.01301 0.32564252,0.32564252 0 0 0 -0.003,-0.0083 0.32564252,0.32564252 0 0 0 -0.0016,-0.0041 0.32564252,0.32564252 0 0 0 -0.0044,-0.01131 0.32564252,0.32564252 0 0 0 -0.006,-0.01379 0.32564252,0.32564252 0 0 0 -0.002,-0.0037 0.32564252,0.32564252 0 0 0 -0.0076,-0.0145 0.32564252,0.32564252 0 0 0 -0.0013,-0.003 0.32564252,0.32564252 0 0 0 -0.0061,-0.01046 0.32564252,0.32564252 0 0 0 -0.0046,-0.0081 0.32564252,0.32564252 0 0 0 -0.0034,-0.0051 0.32564252,0.32564252 0 0 0 -0.0083,-0.01188 0.32564252,0.32564252 0 0 0 -0.0024,-0.0033 0.32564252,0.32564252 0 0 0 -0.01,-0.01252 0.32564252,0.32564252 0 0 0 -0.0014,-0.0014 0.32564252,0.32564252 0 0 0 -0.01174,-0.01344 0.32564252,0.32564252 0 0 0 -0.0054,-0.0059 L 13.359093,0.0953969 A 0.32564252,0.32564252 0 0 0 13.345153,0.0823169 0.32564252,0.32564252 0 0 0 13.152233,9.1689587e-4 0.32564252,0.32564252 0 0 0 13.132903,2.5895871e-5 0.32564252,0.32564252 0 0 0 12.898355,0.0955559 L 0.09530539,12.898606 a 0.32564252,0.32564252 0 0 0 -0.01327,0.01413 0.32564252,0.32564252 0 0 0 -0.05264,0.08092 0.32564252,0.32564252 0 0 0 0.06589,0.365377 z m 0.230241,-0.690723 -12.0173146,-12.017315 24.0346286,3e-6 z"
     clip-rule="nonzero"
     display="inline"
     overflow="visible"
     visibility="visible"
     fill="#000000"
     fill-opacity="1"
     fill-rule="evenodd"
     stroke="none"
     stop-color="#000000"
     id="path1" />
</svg>
